<?xml version="1.0" encoding="utf-8"?>
<!-- Generator: Adobe Illustrator 16.0.0, SVG Export Plug-In . SVG Version: 6.00 Build 0)  -->
<!DOCTYPE svg PUBLIC "-//W3C//DTD SVG 1.1//EN" "http://www.w3.org/Graphics/SVG/1.1/DTD/svg11.dtd">
<svg version="1.1" id="Capa_1" xmlns="http://www.w3.org/2000/svg" xmlns:xlink="http://www.w3.org/1999/xlink" x="0px" y="0px"
	 width="512px" height="512px" viewBox="0 0 512 512" enable-background="new 0 0 512 512" xml:space="preserve">
<path id="XMLID_188_" fill="#FFFFFF" d="M397.594,189.656c-0.933,0-1.828,0.12-2.742,0.144L379.29,98.808
	c-0.843-4.908-3.765-9.214-7.997-11.833c-4.221-2.616-9.376-3.286-14.152-1.846l-46.865,14.194
	c-9.162,2.779-14.342,12.466-11.563,21.644c2.779,9.171,12.496,14.368,21.63,11.578l28.031-8.492l6.426,37.459H207.253v-7.373
	l18.134-4.578c7.207-1.814,12.343-8.534,11.914-16.23c-0.483-8.721-7.96-15.391-16.691-14.89l-66.987,3.806
	c-1.336,0.083-2.814,0.305-4.169,0.642c-11.895,3.01-19.12,15.096-16.117,26.995c3.003,11.899,15.104,19.11,27,16.108l12.199-3.083
	v11.27l-14.27,24.577c-13.509-5.846-28.283-9.1-43.798-9.1C51.353,189.656,0,243.028,0,308.631
	c0,65.613,51.353,118.985,114.469,118.985c57.396,0,104.94-44.237,113.053-101.628h18.509c4.931,0,9.627-2.102,12.917-5.78
	l25.459-28.434c-0.763,5.526-1.291,11.122-1.291,16.856c0,65.614,51.362,118.986,114.478,118.986
	c63.088,0,114.406-53.372,114.406-118.986C512,243.028,460.682,189.656,397.594,189.656z M114.469,392.904
	c-43.977,0-79.761-37.805-79.761-84.273c0-46.465,35.784-84.262,79.761-84.262c9.152,0,17.802,1.975,26.004,4.991l-41.019,70.555
	c-3.12,5.363-3.138,11.991-0.037,17.372c3.083,5.382,8.83,8.703,15.051,8.703h77.968
	C184.845,364.15,152.782,392.904,114.469,392.904z M192.437,291.275h-47.795l25.09-43.146
	C180.981,259.621,189.103,274.493,192.437,291.275z M238.27,291.275h-10.748c-4.169-29.576-18.744-55.679-39.863-74.003
	l12.237-21.051h123.442L238.27,291.275z M397.594,392.904c-43.984,0-79.761-37.805-79.761-84.273
	c0-34.888,20.169-64.889,48.844-77.668l13.796,80.602c1.462,8.459,8.785,14.424,17.086,14.424c0.984,0,1.972-0.075,2.948-0.246
	c9.467-1.618,15.803-10.594,14.19-20.04l-13.867-80.986c42.426,1.849,76.462,38.628,76.462,83.915
	C477.292,355.098,441.525,392.904,397.594,392.904z"/>
</svg>
