<?xml version="1.0" encoding="utf-8"?>
<!-- Generator: Adobe Illustrator 16.0.0, SVG Export Plug-In . SVG Version: 6.00 Build 0)  -->
<!DOCTYPE svg PUBLIC "-//W3C//DTD SVG 1.1//EN" "http://www.w3.org/Graphics/SVG/1.1/DTD/svg11.dtd">
<svg version="1.1" id="Capa_1" xmlns="http://www.w3.org/2000/svg" xmlns:xlink="http://www.w3.org/1999/xlink" x="0px" y="0px"
	 width="512px" height="512px" viewBox="0 0 512 512" enable-background="new 0 0 512 512" xml:space="preserve">
<g>
	<g>
		<path fill="#FFFFFF" d="M509.063,186.951c-2.504-3.055-6.24-4.837-10.16-4.837h-49.83c-12.297-32.434-28.316-64.211-46.526-76.207
			c-62.992-41.44-230.075-41.44-293.067,0c-18.223,12.009-34.177,43.826-46.54,76.207H13.11c-3.959,0-7.683,1.783-10.16,4.837
			c-2.491,3.042-3.487,7.066-2.674,10.934l7.381,35.763c1.258,6.096,6.633,10.448,12.834,10.448h14.761
			c-14.25,16.44-21.159,37.14-21.251,57.853c-0.092,25.59,9.623,48.716,27.386,65.077c0.197,0.171,0.394,0.288,0.577,0.458v50.04
			c0,10.842,8.81,19.665,19.665,19.665h45.962c10.855,0,19.665-8.823,19.665-19.665v-20.11h257.488v20.11
			c0,10.842,8.81,19.665,19.664,19.665h45.963c10.829,0,19.665-8.823,19.665-19.665v-49.056
			c18.852-17.266,27.857-41.021,27.976-64.736c0.079-21.422-7.145-42.882-22.234-59.662h15.745c6.228,0,11.603-4.353,12.835-10.462
			l7.394-35.75C512.512,194.017,511.555,190.019,509.063,186.951z M131.071,138.747c50.21-33.049,199.648-33.049,249.832,0
			c9.754,6.397,22.3,32.263,33.797,63.936H97.3C108.771,171.023,121.317,145.17,131.071,138.747z M72.261,306.879
			c0-21.369,17.331-38.674,38.687-38.674c21.382,0,38.687,17.305,38.687,38.674s-17.305,38.687-38.687,38.687
			C89.592,345.565,72.261,328.248,72.261,306.879z M401.563,345.565c-21.355,0-38.687-17.317-38.687-38.687
			s17.331-38.674,38.687-38.674c21.382,0,38.688,17.305,38.688,38.674S422.92,345.565,401.563,345.565z"/>
	</g>
</g>
</svg>
